<mxfile host="app.diagrams.net" modified="2023-12-16T10:34:22.668Z" agent="Mozilla/5.0 (Macintosh; Intel Mac OS X 10_15_7) AppleWebKit/537.36 (KHTML, like Gecko) Chrome/120.0.0.0 Safari/537.36" etag="QqXndL8VVvXtI5awuLf6" version="22.1.11" type="github">
  <diagram name="第 1 页" id="3q0Wu0lU1T0cGlUXBiHC">
    <mxGraphModel dx="3098" dy="1868" grid="1" gridSize="10" guides="1" tooltips="1" connect="1" arrows="1" fold="1" page="1" pageScale="1" pageWidth="1169" pageHeight="1654" math="0" shadow="0">
      <root>
        <mxCell id="0" />
        <mxCell id="1" parent="0" />
        <mxCell id="PBTHxAhBPmr863J82pAF-55" value="" style="group" vertex="1" connectable="0" parent="1">
          <mxGeometry x="270" y="82" width="1650" height="1490" as="geometry" />
        </mxCell>
        <mxCell id="PBTHxAhBPmr863J82pAF-1" value="/opt/homebrew" style="rounded=0;whiteSpace=wrap;html=1;sketch=1;hachureGap=4;jiggle=2;curveFitting=1;fontFamily=Architects Daughter;fontSource=https%3A%2F%2Ffonts.googleapis.com%2Fcss%3Ffamily%3DArchitects%2BDaughter;fontSize=20;" vertex="1" parent="PBTHxAhBPmr863J82pAF-55">
          <mxGeometry y="700" width="190" height="60" as="geometry" />
        </mxCell>
        <mxCell id="PBTHxAhBPmr863J82pAF-4" value="" style="line;strokeWidth=2;direction=south;html=1;sketch=1;hachureGap=4;jiggle=2;curveFitting=1;fontFamily=Architects Daughter;fontSource=https%3A%2F%2Ffonts.googleapis.com%2Fcss%3Ffamily%3DArchitects%2BDaughter;fontSize=20;" vertex="1" parent="PBTHxAhBPmr863J82pAF-55">
          <mxGeometry x="360" y="50" width="10" height="1370" as="geometry" />
        </mxCell>
        <mxCell id="PBTHxAhBPmr863J82pAF-8" value="" style="group" vertex="1" connectable="0" parent="PBTHxAhBPmr863J82pAF-55">
          <mxGeometry x="370" width="1210" height="130" as="geometry" />
        </mxCell>
        <mxCell id="PBTHxAhBPmr863J82pAF-2" value="/Cellar" style="rounded=0;whiteSpace=wrap;html=1;sketch=1;hachureGap=4;jiggle=2;curveFitting=1;fontFamily=Architects Daughter;fontSource=https%3A%2F%2Ffonts.googleapis.com%2Fcss%3Ffamily%3DArchitects%2BDaughter;fontSize=20;" vertex="1" parent="PBTHxAhBPmr863J82pAF-8">
          <mxGeometry x="110" y="20" width="120" height="60" as="geometry" />
        </mxCell>
        <mxCell id="PBTHxAhBPmr863J82pAF-5" value="/Cellar 目录的作用是：&lt;br&gt;存放Homebrew通过源码编译安装的软件包。&lt;br&gt;每个软件包都有一个独立的目录，目录名通常是软件包名称与版本号。" style="shape=note;whiteSpace=wrap;html=1;backgroundOutline=1;darkOpacity=0.05;sketch=1;hachureGap=4;jiggle=2;curveFitting=1;fontFamily=Architects Daughter;fontSource=https%3A%2F%2Ffonts.googleapis.com%2Fcss%3Ffamily%3DArchitects%2BDaughter;fontSize=20;" vertex="1" parent="PBTHxAhBPmr863J82pAF-8">
          <mxGeometry x="340" width="870" height="100" as="geometry" />
        </mxCell>
        <mxCell id="PBTHxAhBPmr863J82pAF-6" value="" style="endArrow=classic;html=1;rounded=0;sketch=1;hachureGap=4;jiggle=2;curveFitting=1;fontFamily=Architects Daughter;fontSource=https%3A%2F%2Ffonts.googleapis.com%2Fcss%3Ffamily%3DArchitects%2BDaughter;fontSize=16;entryX=0;entryY=0.5;entryDx=0;entryDy=0;" edge="1" parent="PBTHxAhBPmr863J82pAF-8" target="PBTHxAhBPmr863J82pAF-2">
          <mxGeometry width="50" height="50" relative="1" as="geometry">
            <mxPoint y="50" as="sourcePoint" />
            <mxPoint x="460" y="320" as="targetPoint" />
          </mxGeometry>
        </mxCell>
        <mxCell id="PBTHxAhBPmr863J82pAF-7" value="" style="endArrow=classic;html=1;rounded=0;sketch=1;hachureGap=4;jiggle=2;curveFitting=1;fontFamily=Architects Daughter;fontSource=https%3A%2F%2Ffonts.googleapis.com%2Fcss%3Ffamily%3DArchitects%2BDaughter;fontSize=16;entryX=0;entryY=0.5;entryDx=0;entryDy=0;" edge="1" parent="PBTHxAhBPmr863J82pAF-8">
          <mxGeometry width="50" height="50" relative="1" as="geometry">
            <mxPoint x="230" y="50" as="sourcePoint" />
            <mxPoint x="340" y="50" as="targetPoint" />
          </mxGeometry>
        </mxCell>
        <mxCell id="PBTHxAhBPmr863J82pAF-9" value="" style="group" vertex="1" connectable="0" parent="PBTHxAhBPmr863J82pAF-55">
          <mxGeometry x="370" y="160" width="1250" height="140" as="geometry" />
        </mxCell>
        <mxCell id="PBTHxAhBPmr863J82pAF-10" value="/bin" style="rounded=0;whiteSpace=wrap;html=1;sketch=1;hachureGap=4;jiggle=2;curveFitting=1;fontFamily=Architects Daughter;fontSource=https%3A%2F%2Ffonts.googleapis.com%2Fcss%3Ffamily%3DArchitects%2BDaughter;fontSize=20;" vertex="1" parent="PBTHxAhBPmr863J82pAF-9">
          <mxGeometry x="110" y="20" width="120" height="60" as="geometry" />
        </mxCell>
        <mxCell id="PBTHxAhBPmr863J82pAF-11" value="/bin 目录的作用是：&lt;br&gt;存放Homebrew安装的各种命令行程序的链接。&lt;span style=&quot;background-color: initial;&quot;&gt;即通过 Homebrew 安装的软件的可执行文件。&lt;/span&gt;&lt;br&gt;&lt;div&gt;当你在终端中执行一个通过 Homebrew 安装的命令时，系统会查找并执行这个目录下的可执行文件。&lt;/div&gt;" style="shape=note;whiteSpace=wrap;html=1;backgroundOutline=1;darkOpacity=0.05;sketch=1;hachureGap=4;jiggle=2;curveFitting=1;fontFamily=Architects Daughter;fontSource=https%3A%2F%2Ffonts.googleapis.com%2Fcss%3Ffamily%3DArchitects%2BDaughter;fontSize=20;" vertex="1" parent="PBTHxAhBPmr863J82pAF-9">
          <mxGeometry x="340" y="-20" width="910" height="140" as="geometry" />
        </mxCell>
        <mxCell id="PBTHxAhBPmr863J82pAF-12" value="" style="endArrow=classic;html=1;rounded=0;sketch=1;hachureGap=4;jiggle=2;curveFitting=1;fontFamily=Architects Daughter;fontSource=https%3A%2F%2Ffonts.googleapis.com%2Fcss%3Ffamily%3DArchitects%2BDaughter;fontSize=16;entryX=0;entryY=0.5;entryDx=0;entryDy=0;" edge="1" parent="PBTHxAhBPmr863J82pAF-9" target="PBTHxAhBPmr863J82pAF-10">
          <mxGeometry width="50" height="50" relative="1" as="geometry">
            <mxPoint y="50" as="sourcePoint" />
            <mxPoint x="460" y="320" as="targetPoint" />
          </mxGeometry>
        </mxCell>
        <mxCell id="PBTHxAhBPmr863J82pAF-13" value="" style="endArrow=classic;html=1;rounded=0;sketch=1;hachureGap=4;jiggle=2;curveFitting=1;fontFamily=Architects Daughter;fontSource=https%3A%2F%2Ffonts.googleapis.com%2Fcss%3Ffamily%3DArchitects%2BDaughter;fontSize=16;entryX=0;entryY=0.5;entryDx=0;entryDy=0;" edge="1" parent="PBTHxAhBPmr863J82pAF-9">
          <mxGeometry width="50" height="50" relative="1" as="geometry">
            <mxPoint x="230" y="50" as="sourcePoint" />
            <mxPoint x="340" y="50" as="targetPoint" />
          </mxGeometry>
        </mxCell>
        <mxCell id="PBTHxAhBPmr863J82pAF-14" value="" style="group" vertex="1" connectable="0" parent="PBTHxAhBPmr863J82pAF-55">
          <mxGeometry x="370" y="320" width="1030" height="120" as="geometry" />
        </mxCell>
        <mxCell id="PBTHxAhBPmr863J82pAF-15" value="/etc" style="rounded=0;whiteSpace=wrap;html=1;sketch=1;hachureGap=4;jiggle=2;curveFitting=1;fontFamily=Architects Daughter;fontSource=https%3A%2F%2Ffonts.googleapis.com%2Fcss%3Ffamily%3DArchitects%2BDaughter;fontSize=20;" vertex="1" parent="PBTHxAhBPmr863J82pAF-14">
          <mxGeometry x="110" y="20" width="120" height="60" as="geometry" />
        </mxCell>
        <mxCell id="PBTHxAhBPmr863J82pAF-16" value="/etc 目录的作用是：&lt;br&gt;包含一些软件包的配置文件，这些文件可以影响软件包的行为。&lt;div&gt;一些软件在安装时需要修改系统的配置，这些修改通常保存在这个目录中。&lt;/div&gt;" style="shape=note;whiteSpace=wrap;html=1;backgroundOutline=1;darkOpacity=0.05;sketch=1;hachureGap=4;jiggle=2;curveFitting=1;fontFamily=Architects Daughter;fontSource=https%3A%2F%2Ffonts.googleapis.com%2Fcss%3Ffamily%3DArchitects%2BDaughter;fontSize=20;" vertex="1" parent="PBTHxAhBPmr863J82pAF-14">
          <mxGeometry x="340" width="690" height="110" as="geometry" />
        </mxCell>
        <mxCell id="PBTHxAhBPmr863J82pAF-17" value="" style="endArrow=classic;html=1;rounded=0;sketch=1;hachureGap=4;jiggle=2;curveFitting=1;fontFamily=Architects Daughter;fontSource=https%3A%2F%2Ffonts.googleapis.com%2Fcss%3Ffamily%3DArchitects%2BDaughter;fontSize=16;entryX=0;entryY=0.5;entryDx=0;entryDy=0;" edge="1" parent="PBTHxAhBPmr863J82pAF-14" target="PBTHxAhBPmr863J82pAF-15">
          <mxGeometry width="50" height="50" relative="1" as="geometry">
            <mxPoint y="50" as="sourcePoint" />
            <mxPoint x="460" y="320" as="targetPoint" />
          </mxGeometry>
        </mxCell>
        <mxCell id="PBTHxAhBPmr863J82pAF-18" value="" style="endArrow=classic;html=1;rounded=0;sketch=1;hachureGap=4;jiggle=2;curveFitting=1;fontFamily=Architects Daughter;fontSource=https%3A%2F%2Ffonts.googleapis.com%2Fcss%3Ffamily%3DArchitects%2BDaughter;fontSize=16;entryX=0;entryY=0.5;entryDx=0;entryDy=0;" edge="1" parent="PBTHxAhBPmr863J82pAF-14">
          <mxGeometry width="50" height="50" relative="1" as="geometry">
            <mxPoint x="230" y="50" as="sourcePoint" />
            <mxPoint x="340" y="50" as="targetPoint" />
          </mxGeometry>
        </mxCell>
        <mxCell id="PBTHxAhBPmr863J82pAF-19" value="" style="group" vertex="1" connectable="0" parent="PBTHxAhBPmr863J82pAF-55">
          <mxGeometry x="370" y="460" width="1150" height="120" as="geometry" />
        </mxCell>
        <mxCell id="PBTHxAhBPmr863J82pAF-20" value="/include" style="rounded=0;whiteSpace=wrap;html=1;sketch=1;hachureGap=4;jiggle=2;curveFitting=1;fontFamily=Architects Daughter;fontSource=https%3A%2F%2Ffonts.googleapis.com%2Fcss%3Ffamily%3DArchitects%2BDaughter;fontSize=20;" vertex="1" parent="PBTHxAhBPmr863J82pAF-19">
          <mxGeometry x="110" y="20" width="120" height="60" as="geometry" />
        </mxCell>
        <mxCell id="PBTHxAhBPmr863J82pAF-21" value="/include 目录的作用是：&lt;br&gt;包含一些头文件（header files），这些文件是用于编译和构建软件时需要包含的文件。&lt;br&gt;头文件通常包含了函数、变量声明等信息，用于在编译时检查代码的正确性。" style="shape=note;whiteSpace=wrap;html=1;backgroundOutline=1;darkOpacity=0.05;sketch=1;hachureGap=4;jiggle=2;curveFitting=1;fontFamily=Architects Daughter;fontSource=https%3A%2F%2Ffonts.googleapis.com%2Fcss%3Ffamily%3DArchitects%2BDaughter;fontSize=20;" vertex="1" parent="PBTHxAhBPmr863J82pAF-19">
          <mxGeometry x="340" width="810" height="100" as="geometry" />
        </mxCell>
        <mxCell id="PBTHxAhBPmr863J82pAF-22" value="" style="endArrow=classic;html=1;rounded=0;sketch=1;hachureGap=4;jiggle=2;curveFitting=1;fontFamily=Architects Daughter;fontSource=https%3A%2F%2Ffonts.googleapis.com%2Fcss%3Ffamily%3DArchitects%2BDaughter;fontSize=16;entryX=0;entryY=0.5;entryDx=0;entryDy=0;" edge="1" parent="PBTHxAhBPmr863J82pAF-19" target="PBTHxAhBPmr863J82pAF-20">
          <mxGeometry width="50" height="50" relative="1" as="geometry">
            <mxPoint y="50" as="sourcePoint" />
            <mxPoint x="460" y="320" as="targetPoint" />
          </mxGeometry>
        </mxCell>
        <mxCell id="PBTHxAhBPmr863J82pAF-23" value="" style="endArrow=classic;html=1;rounded=0;sketch=1;hachureGap=4;jiggle=2;curveFitting=1;fontFamily=Architects Daughter;fontSource=https%3A%2F%2Ffonts.googleapis.com%2Fcss%3Ffamily%3DArchitects%2BDaughter;fontSize=16;entryX=0;entryY=0.5;entryDx=0;entryDy=0;" edge="1" parent="PBTHxAhBPmr863J82pAF-19">
          <mxGeometry width="50" height="50" relative="1" as="geometry">
            <mxPoint x="230" y="50" as="sourcePoint" />
            <mxPoint x="340" y="50" as="targetPoint" />
          </mxGeometry>
        </mxCell>
        <mxCell id="PBTHxAhBPmr863J82pAF-24" value="" style="group" vertex="1" connectable="0" parent="PBTHxAhBPmr863J82pAF-55">
          <mxGeometry x="370" y="610" width="1050" height="120" as="geometry" />
        </mxCell>
        <mxCell id="PBTHxAhBPmr863J82pAF-25" value="/opt" style="rounded=0;whiteSpace=wrap;html=1;sketch=1;hachureGap=4;jiggle=2;curveFitting=1;fontFamily=Architects Daughter;fontSource=https%3A%2F%2Ffonts.googleapis.com%2Fcss%3Ffamily%3DArchitects%2BDaughter;fontSize=20;" vertex="1" parent="PBTHxAhBPmr863J82pAF-24">
          <mxGeometry x="110" y="20" width="120" height="60" as="geometry" />
        </mxCell>
        <mxCell id="PBTHxAhBPmr863J82pAF-26" value="/opt 目录的作用是：&lt;br&gt;&lt;div&gt;Homebrew选择性地将软件安装到这个目录下，而不是/usr/local下。&lt;/div&gt;&lt;div&gt;该目录下会有更深层的路径结构，对应软件包名称。&lt;/div&gt;" style="shape=note;whiteSpace=wrap;html=1;backgroundOutline=1;darkOpacity=0.05;sketch=1;hachureGap=4;jiggle=2;curveFitting=1;fontFamily=Architects Daughter;fontSource=https%3A%2F%2Ffonts.googleapis.com%2Fcss%3Ffamily%3DArchitects%2BDaughter;fontSize=20;" vertex="1" parent="PBTHxAhBPmr863J82pAF-24">
          <mxGeometry x="340" width="710" height="110" as="geometry" />
        </mxCell>
        <mxCell id="PBTHxAhBPmr863J82pAF-27" value="" style="endArrow=classic;html=1;rounded=0;sketch=1;hachureGap=4;jiggle=2;curveFitting=1;fontFamily=Architects Daughter;fontSource=https%3A%2F%2Ffonts.googleapis.com%2Fcss%3Ffamily%3DArchitects%2BDaughter;fontSize=16;entryX=0;entryY=0.5;entryDx=0;entryDy=0;" edge="1" parent="PBTHxAhBPmr863J82pAF-24" target="PBTHxAhBPmr863J82pAF-25">
          <mxGeometry width="50" height="50" relative="1" as="geometry">
            <mxPoint y="50" as="sourcePoint" />
            <mxPoint x="460" y="320" as="targetPoint" />
          </mxGeometry>
        </mxCell>
        <mxCell id="PBTHxAhBPmr863J82pAF-28" value="" style="endArrow=classic;html=1;rounded=0;sketch=1;hachureGap=4;jiggle=2;curveFitting=1;fontFamily=Architects Daughter;fontSource=https%3A%2F%2Ffonts.googleapis.com%2Fcss%3Ffamily%3DArchitects%2BDaughter;fontSize=16;entryX=0;entryY=0.5;entryDx=0;entryDy=0;" edge="1" parent="PBTHxAhBPmr863J82pAF-24">
          <mxGeometry width="50" height="50" relative="1" as="geometry">
            <mxPoint x="230" y="50" as="sourcePoint" />
            <mxPoint x="340" y="50" as="targetPoint" />
          </mxGeometry>
        </mxCell>
        <mxCell id="PBTHxAhBPmr863J82pAF-29" value="" style="group" vertex="1" connectable="0" parent="PBTHxAhBPmr863J82pAF-55">
          <mxGeometry x="370" y="760" width="1050" height="120" as="geometry" />
        </mxCell>
        <mxCell id="PBTHxAhBPmr863J82pAF-30" value="/lib" style="rounded=0;whiteSpace=wrap;html=1;sketch=1;hachureGap=4;jiggle=2;curveFitting=1;fontFamily=Architects Daughter;fontSource=https%3A%2F%2Ffonts.googleapis.com%2Fcss%3Ffamily%3DArchitects%2BDaughter;fontSize=20;" vertex="1" parent="PBTHxAhBPmr863J82pAF-29">
          <mxGeometry x="110" y="20" width="120" height="60" as="geometry" />
        </mxCell>
        <mxCell id="PBTHxAhBPmr863J82pAF-31" value="/lib 目录的作用是：&lt;br&gt;&lt;div&gt;包含一些库文件，这些文件是编译后的二进制文件，用于链接到程序中。&lt;/div&gt;&lt;div&gt;在编译和链接时，系统会搜索这个目录以寻找程序依赖的库文件。&lt;/div&gt;" style="shape=note;whiteSpace=wrap;html=1;backgroundOutline=1;darkOpacity=0.05;sketch=1;hachureGap=4;jiggle=2;curveFitting=1;fontFamily=Architects Daughter;fontSource=https%3A%2F%2Ffonts.googleapis.com%2Fcss%3Ffamily%3DArchitects%2BDaughter;fontSize=20;" vertex="1" parent="PBTHxAhBPmr863J82pAF-29">
          <mxGeometry x="340" width="710" height="110" as="geometry" />
        </mxCell>
        <mxCell id="PBTHxAhBPmr863J82pAF-32" value="" style="endArrow=classic;html=1;rounded=0;sketch=1;hachureGap=4;jiggle=2;curveFitting=1;fontFamily=Architects Daughter;fontSource=https%3A%2F%2Ffonts.googleapis.com%2Fcss%3Ffamily%3DArchitects%2BDaughter;fontSize=16;entryX=0;entryY=0.5;entryDx=0;entryDy=0;" edge="1" parent="PBTHxAhBPmr863J82pAF-29" target="PBTHxAhBPmr863J82pAF-30">
          <mxGeometry width="50" height="50" relative="1" as="geometry">
            <mxPoint y="50" as="sourcePoint" />
            <mxPoint x="460" y="320" as="targetPoint" />
          </mxGeometry>
        </mxCell>
        <mxCell id="PBTHxAhBPmr863J82pAF-33" value="" style="endArrow=classic;html=1;rounded=0;sketch=1;hachureGap=4;jiggle=2;curveFitting=1;fontFamily=Architects Daughter;fontSource=https%3A%2F%2Ffonts.googleapis.com%2Fcss%3Ffamily%3DArchitects%2BDaughter;fontSize=16;entryX=0;entryY=0.5;entryDx=0;entryDy=0;" edge="1" parent="PBTHxAhBPmr863J82pAF-29">
          <mxGeometry width="50" height="50" relative="1" as="geometry">
            <mxPoint x="230" y="50" as="sourcePoint" />
            <mxPoint x="340" y="50" as="targetPoint" />
          </mxGeometry>
        </mxCell>
        <mxCell id="PBTHxAhBPmr863J82pAF-34" value="" style="group" vertex="1" connectable="0" parent="PBTHxAhBPmr863J82pAF-55">
          <mxGeometry x="370" y="900" width="1050" height="120" as="geometry" />
        </mxCell>
        <mxCell id="PBTHxAhBPmr863J82pAF-35" value="/var" style="rounded=0;whiteSpace=wrap;html=1;sketch=1;hachureGap=4;jiggle=2;curveFitting=1;fontFamily=Architects Daughter;fontSource=https%3A%2F%2Ffonts.googleapis.com%2Fcss%3Ffamily%3DArchitects%2BDaughter;fontSize=20;" vertex="1" parent="PBTHxAhBPmr863J82pAF-34">
          <mxGeometry x="110" y="20" width="120" height="60" as="geometry" />
        </mxCell>
        <mxCell id="PBTHxAhBPmr863J82pAF-36" value="/var 目录的作用是：&lt;br&gt;&lt;div&gt;一些软件在运行时生成的临时文件、日志文件等通常存储在这个目录中。&lt;/div&gt;&lt;div&gt;这有助于保持系统目录的干净和有序。&lt;/div&gt;" style="shape=note;whiteSpace=wrap;html=1;backgroundOutline=1;darkOpacity=0.05;sketch=1;hachureGap=4;jiggle=2;curveFitting=1;fontFamily=Architects Daughter;fontSource=https%3A%2F%2Ffonts.googleapis.com%2Fcss%3Ffamily%3DArchitects%2BDaughter;fontSize=20;" vertex="1" parent="PBTHxAhBPmr863J82pAF-34">
          <mxGeometry x="340" width="710" height="110" as="geometry" />
        </mxCell>
        <mxCell id="PBTHxAhBPmr863J82pAF-37" value="" style="endArrow=classic;html=1;rounded=0;sketch=1;hachureGap=4;jiggle=2;curveFitting=1;fontFamily=Architects Daughter;fontSource=https%3A%2F%2Ffonts.googleapis.com%2Fcss%3Ffamily%3DArchitects%2BDaughter;fontSize=16;entryX=0;entryY=0.5;entryDx=0;entryDy=0;" edge="1" parent="PBTHxAhBPmr863J82pAF-34" target="PBTHxAhBPmr863J82pAF-35">
          <mxGeometry width="50" height="50" relative="1" as="geometry">
            <mxPoint y="50" as="sourcePoint" />
            <mxPoint x="460" y="320" as="targetPoint" />
          </mxGeometry>
        </mxCell>
        <mxCell id="PBTHxAhBPmr863J82pAF-38" value="" style="endArrow=classic;html=1;rounded=0;sketch=1;hachureGap=4;jiggle=2;curveFitting=1;fontFamily=Architects Daughter;fontSource=https%3A%2F%2Ffonts.googleapis.com%2Fcss%3Ffamily%3DArchitects%2BDaughter;fontSize=16;entryX=0;entryY=0.5;entryDx=0;entryDy=0;" edge="1" parent="PBTHxAhBPmr863J82pAF-34">
          <mxGeometry width="50" height="50" relative="1" as="geometry">
            <mxPoint x="230" y="50" as="sourcePoint" />
            <mxPoint x="340" y="50" as="targetPoint" />
          </mxGeometry>
        </mxCell>
        <mxCell id="PBTHxAhBPmr863J82pAF-39" value="" style="group" vertex="1" connectable="0" parent="PBTHxAhBPmr863J82pAF-55">
          <mxGeometry x="370" y="1050" width="1050" height="120" as="geometry" />
        </mxCell>
        <mxCell id="PBTHxAhBPmr863J82pAF-40" value="/share" style="rounded=0;whiteSpace=wrap;html=1;sketch=1;hachureGap=4;jiggle=2;curveFitting=1;fontFamily=Architects Daughter;fontSource=https%3A%2F%2Ffonts.googleapis.com%2Fcss%3Ffamily%3DArchitects%2BDaughter;fontSize=20;" vertex="1" parent="PBTHxAhBPmr863J82pAF-39">
          <mxGeometry x="110" y="20" width="120" height="60" as="geometry" />
        </mxCell>
        <mxCell id="PBTHxAhBPmr863J82pAF-41" value="/share 目录的作用是：&lt;br&gt;&lt;div&gt;包含一些共享的数据文件，例如文档、信息文件等。&lt;/div&gt;&lt;div&gt;一些软件包在安装时会将一些共享的数据文件放在这个目录下。&lt;/div&gt;" style="shape=note;whiteSpace=wrap;html=1;backgroundOutline=1;darkOpacity=0.05;sketch=1;hachureGap=4;jiggle=2;curveFitting=1;fontFamily=Architects Daughter;fontSource=https%3A%2F%2Ffonts.googleapis.com%2Fcss%3Ffamily%3DArchitects%2BDaughter;fontSize=20;" vertex="1" parent="PBTHxAhBPmr863J82pAF-39">
          <mxGeometry x="340" width="710" height="110" as="geometry" />
        </mxCell>
        <mxCell id="PBTHxAhBPmr863J82pAF-42" value="" style="endArrow=classic;html=1;rounded=0;sketch=1;hachureGap=4;jiggle=2;curveFitting=1;fontFamily=Architects Daughter;fontSource=https%3A%2F%2Ffonts.googleapis.com%2Fcss%3Ffamily%3DArchitects%2BDaughter;fontSize=16;entryX=0;entryY=0.5;entryDx=0;entryDy=0;" edge="1" parent="PBTHxAhBPmr863J82pAF-39" target="PBTHxAhBPmr863J82pAF-40">
          <mxGeometry width="50" height="50" relative="1" as="geometry">
            <mxPoint y="50" as="sourcePoint" />
            <mxPoint x="460" y="320" as="targetPoint" />
          </mxGeometry>
        </mxCell>
        <mxCell id="PBTHxAhBPmr863J82pAF-43" value="" style="endArrow=classic;html=1;rounded=0;sketch=1;hachureGap=4;jiggle=2;curveFitting=1;fontFamily=Architects Daughter;fontSource=https%3A%2F%2Ffonts.googleapis.com%2Fcss%3Ffamily%3DArchitects%2BDaughter;fontSize=16;entryX=0;entryY=0.5;entryDx=0;entryDy=0;" edge="1" parent="PBTHxAhBPmr863J82pAF-39">
          <mxGeometry width="50" height="50" relative="1" as="geometry">
            <mxPoint x="230" y="50" as="sourcePoint" />
            <mxPoint x="340" y="50" as="targetPoint" />
          </mxGeometry>
        </mxCell>
        <mxCell id="PBTHxAhBPmr863J82pAF-44" value="" style="group" vertex="1" connectable="0" parent="PBTHxAhBPmr863J82pAF-55">
          <mxGeometry x="370" y="1210" width="1050" height="120" as="geometry" />
        </mxCell>
        <mxCell id="PBTHxAhBPmr863J82pAF-45" value="/sbin" style="rounded=0;whiteSpace=wrap;html=1;sketch=1;hachureGap=4;jiggle=2;curveFitting=1;fontFamily=Architects Daughter;fontSource=https%3A%2F%2Ffonts.googleapis.com%2Fcss%3Ffamily%3DArchitects%2BDaughter;fontSize=20;" vertex="1" parent="PBTHxAhBPmr863J82pAF-44">
          <mxGeometry x="110" y="20" width="120" height="60" as="geometry" />
        </mxCell>
        <mxCell id="PBTHxAhBPmr863J82pAF-46" value="/sbin 目录的作用是：&lt;br&gt;&lt;div&gt;存储一些系统管理的工具和命令，这些命令通常需要管理员权限运行。&lt;/div&gt;&lt;div&gt;与 bin 目录类似，但这里存储的是一些系统级别的命令。&lt;/div&gt;" style="shape=note;whiteSpace=wrap;html=1;backgroundOutline=1;darkOpacity=0.05;sketch=1;hachureGap=4;jiggle=2;curveFitting=1;fontFamily=Architects Daughter;fontSource=https%3A%2F%2Ffonts.googleapis.com%2Fcss%3Ffamily%3DArchitects%2BDaughter;fontSize=20;" vertex="1" parent="PBTHxAhBPmr863J82pAF-44">
          <mxGeometry x="340" width="710" height="110" as="geometry" />
        </mxCell>
        <mxCell id="PBTHxAhBPmr863J82pAF-47" value="" style="endArrow=classic;html=1;rounded=0;sketch=1;hachureGap=4;jiggle=2;curveFitting=1;fontFamily=Architects Daughter;fontSource=https%3A%2F%2Ffonts.googleapis.com%2Fcss%3Ffamily%3DArchitects%2BDaughter;fontSize=16;entryX=0;entryY=0.5;entryDx=0;entryDy=0;" edge="1" parent="PBTHxAhBPmr863J82pAF-44" target="PBTHxAhBPmr863J82pAF-45">
          <mxGeometry width="50" height="50" relative="1" as="geometry">
            <mxPoint y="50" as="sourcePoint" />
            <mxPoint x="460" y="320" as="targetPoint" />
          </mxGeometry>
        </mxCell>
        <mxCell id="PBTHxAhBPmr863J82pAF-48" value="" style="endArrow=classic;html=1;rounded=0;sketch=1;hachureGap=4;jiggle=2;curveFitting=1;fontFamily=Architects Daughter;fontSource=https%3A%2F%2Ffonts.googleapis.com%2Fcss%3Ffamily%3DArchitects%2BDaughter;fontSize=16;entryX=0;entryY=0.5;entryDx=0;entryDy=0;" edge="1" parent="PBTHxAhBPmr863J82pAF-44">
          <mxGeometry width="50" height="50" relative="1" as="geometry">
            <mxPoint x="230" y="50" as="sourcePoint" />
            <mxPoint x="340" y="50" as="targetPoint" />
          </mxGeometry>
        </mxCell>
        <mxCell id="PBTHxAhBPmr863J82pAF-54" value="" style="endArrow=classic;html=1;rounded=0;sketch=1;hachureGap=4;jiggle=2;curveFitting=1;fontFamily=Architects Daughter;fontSource=https%3A%2F%2Ffonts.googleapis.com%2Fcss%3Ffamily%3DArchitects%2BDaughter;fontSize=16;exitX=1;exitY=0.5;exitDx=0;exitDy=0;entryX=0.492;entryY=0.8;entryDx=0;entryDy=0;entryPerimeter=0;" edge="1" parent="PBTHxAhBPmr863J82pAF-55" source="PBTHxAhBPmr863J82pAF-1" target="PBTHxAhBPmr863J82pAF-4">
          <mxGeometry width="50" height="50" relative="1" as="geometry">
            <mxPoint x="740" y="590" as="sourcePoint" />
            <mxPoint x="790" y="540" as="targetPoint" />
          </mxGeometry>
        </mxCell>
        <mxCell id="PBTHxAhBPmr863J82pAF-57" value="" style="group" vertex="1" connectable="0" parent="PBTHxAhBPmr863J82pAF-55">
          <mxGeometry x="370" y="1370" width="1280" height="120" as="geometry" />
        </mxCell>
        <mxCell id="PBTHxAhBPmr863J82pAF-58" value="/Caskroom" style="rounded=0;whiteSpace=wrap;html=1;sketch=1;hachureGap=4;jiggle=2;curveFitting=1;fontFamily=Architects Daughter;fontSource=https%3A%2F%2Ffonts.googleapis.com%2Fcss%3Ffamily%3DArchitects%2BDaughter;fontSize=20;" vertex="1" parent="PBTHxAhBPmr863J82pAF-57">
          <mxGeometry x="110" y="20" width="120" height="60" as="geometry" />
        </mxCell>
        <mxCell id="PBTHxAhBPmr863J82pAF-59" value="/Caskroom&amp;nbsp;目录的作用是：&lt;br&gt;Cask 是 Homebrew 的一个子项目，它专注于管理 macOS 图形应用程序的安装和更新。&lt;br&gt;Cask 安装的应用程序通常会被放置在 /opt/homebrew/Caskroom 目录中，方便管理和维护。&lt;br&gt;/opt/homebrew/Caskroom 目录用于存储通过 Cask 安装的应用程序的二进制文件和相关资源。" style="shape=note;whiteSpace=wrap;html=1;backgroundOutline=1;darkOpacity=0.05;sketch=1;hachureGap=4;jiggle=2;curveFitting=1;fontFamily=Architects Daughter;fontSource=https%3A%2F%2Ffonts.googleapis.com%2Fcss%3Ffamily%3DArchitects%2BDaughter;fontSize=20;" vertex="1" parent="PBTHxAhBPmr863J82pAF-57">
          <mxGeometry x="340" width="940" height="100" as="geometry" />
        </mxCell>
        <mxCell id="PBTHxAhBPmr863J82pAF-60" value="" style="endArrow=classic;html=1;rounded=0;sketch=1;hachureGap=4;jiggle=2;curveFitting=1;fontFamily=Architects Daughter;fontSource=https%3A%2F%2Ffonts.googleapis.com%2Fcss%3Ffamily%3DArchitects%2BDaughter;fontSize=16;entryX=0;entryY=0.5;entryDx=0;entryDy=0;" edge="1" parent="PBTHxAhBPmr863J82pAF-57" target="PBTHxAhBPmr863J82pAF-58">
          <mxGeometry width="50" height="50" relative="1" as="geometry">
            <mxPoint y="50" as="sourcePoint" />
            <mxPoint x="460" y="320" as="targetPoint" />
          </mxGeometry>
        </mxCell>
        <mxCell id="PBTHxAhBPmr863J82pAF-61" value="" style="endArrow=classic;html=1;rounded=0;sketch=1;hachureGap=4;jiggle=2;curveFitting=1;fontFamily=Architects Daughter;fontSource=https%3A%2F%2Ffonts.googleapis.com%2Fcss%3Ffamily%3DArchitects%2BDaughter;fontSize=16;entryX=0;entryY=0.5;entryDx=0;entryDy=0;" edge="1" parent="PBTHxAhBPmr863J82pAF-57">
          <mxGeometry width="50" height="50" relative="1" as="geometry">
            <mxPoint x="230" y="50" as="sourcePoint" />
            <mxPoint x="340" y="50" as="targetPoint" />
          </mxGeometry>
        </mxCell>
      </root>
    </mxGraphModel>
  </diagram>
</mxfile>
